Exo-BoldItalic.ufo
<glyph name="asterisk" format="1">
  <advance width="435"/>
  <unicode hex="002A"/>
  <note>
    GF Latin Plus glyph
  </note>
  <outline>
    <contour>
      <point x="328" y="566" type="line"/>
      <point x="366" y="507" type="line"/>
      <point x="483" y="603" type="line"/>
      <point x="458" y="647" type="line"/>
    </contour>
    <contour>
      <point x="278" y="722" type="line"/>
      <point x="301" y="586" type="line"/>
      <point x="376" y="614" type="line"/>
      <point x="333" y="739" type="line"/>
    </contour>
    <contour>
      <point x="261" y="469" type="line"/>
      <point x="373" y="401" type="line"/>
      <point x="412" y="445" type="line"/>
      <point x="312" y="533" type="line"/>
    </contour>
    <contour>
      <point x="155" y="416" type="line"/>
      <point x="204" y="399" type="line"/>
      <point x="274" y="534" type="line"/>
      <point x="203" y="553" type="line"/>
    </contour>
    <contour>
      <point x="123" y="573" type="line"/>
      <point x="266" y="568" type="line"/>
      <point x="274" y="643" type="line"/>
      <point x="131" y="628" type="line"/>
    </contour>
  </outline>
</glyph>
<glyph name="comma" format="1">
  <advance width="234"/>
  <unicode hex="002C"/>
  <note>
    GF Latin Plus glyph
  </note>
  <outline>
    <contour>
      <point x="61" y="46" type="line" smooth="yes"/>
      <point x="59" y="37"/>
      <point x="59" y="31"/>
      <point x="59" y="28" type="curve" smooth="yes"/>
      <point x="59" y="16"/>
      <point x="66" y="10"/>
      <point x="77" y="10" type="curve" smooth="yes"/>
      <point x="86" y="10" type="line"/>
      <point x="82" y="-16" type="line" smooth="yes"/>
      <point x="79" y="-32"/>
      <point x="71" y="-36"/>
      <point x="52" y="-36" type="curve"/>
      <point x="45" y="-83" type="line"/>
      <point x="45" y="-83"/>
      <point x="66" y="-89"/>
      <point x="91" y="-89" type="curve" smooth="yes"/>
      <point x="125" y="-89"/>
      <point x="167" y="-77"/>
      <point x="177" y="-18" type="curve" smooth="yes"/>
      <point x="197" y="105" type="line" smooth="yes"/>
      <point x="198" y="114"/>
      <point x="199" y="122"/>
      <point x="199" y="125" type="curve" smooth="yes"/>
      <point x="199" y="136"/>
      <point x="195" y="142"/>
      <point x="182" y="142" type="curve" smooth="yes"/>
      <point x="98" y="142" type="line" smooth="yes"/>
      <point x="84" y="142"/>
      <point x="75" y="135"/>
      <point x="73" y="119" type="curve" smooth="yes"/>
    </contour>
  </outline>
</glyph>
<glyph name="zero" format="1">
  <advance width="647"/>
  <unicode hex="0030"/>
  <note>
    GF Latin Plus glyph
  </note>
  <outline>
    <contour>
      <point x="236" y="210" type="curve" smooth="yes"/>
      <point x="287" y="533" type="line" smooth="yes"/>
      <point x="295" y="586"/>
      <point x="327" y="613"/>
      <point x="376" y="613" type="curve" smooth="yes"/>
      <point x="467" y="613" type="line" smooth="yes"/>
      <point x="506" y="613"/>
      <point x="530" y="597"/>
      <point x="530" y="555" type="curve" smooth="yes"/>
      <point x="530" y="549"/>
      <point x="530" y="541"/>
      <point x="528" y="533" type="curve" smooth="yes"/>
      <point x="477" y="209" type="line" smooth="yes"/>
      <point x="468" y="155"/>
      <point x="439" y="129"/>
      <point x="385" y="129" type="curve" smooth="yes"/>
      <point x="305" y="129" type="line" smooth="yes"/>
      <point x="259" y="129"/>
      <point x="234" y="147"/>
      <point x="234" y="188" type="curve" smooth="yes"/>
      <point x="234" y="195"/>
      <point x="235" y="201"/>
    </contour>
    <contour>
      <point x="84" y="187" type="line" smooth="yes"/>
      <point x="81" y="171"/>
      <point x="80" y="156"/>
      <point x="80" y="142" type="curve" smooth="yes"/>
      <point x="80" y="46"/>
      <point x="140" y="-4"/>
      <point x="248" y="-4" type="curve" smooth="yes"/>
      <point x="403" y="-4" type="line" smooth="yes"/>
      <point x="522" y="-4"/>
      <point x="602" y="63"/>
      <point x="622" y="187" type="curve" smooth="yes"/>
      <point x="679" y="547" type="line" smooth="yes"/>
      <point x="681" y="565"/>
      <point x="683" y="581"/>
      <point x="683" y="596" type="curve" smooth="yes"/>
      <point x="683" y="691"/>
      <point x="630" y="746"/>
      <point x="523" y="746" type="curve" smooth="yes"/>
      <point x="368" y="746" type="line" smooth="yes"/>
      <point x="247" y="746"/>
      <point x="162" y="677"/>
      <point x="141" y="547" type="curve" smooth="yes"/>
    </contour>
  </outline>
</glyph>
<glyph name="F" format="1">
  <advance width="564"/>
  <unicode hex="0046"/>
  <note>
    GF Latin Plus glyph
  </note>
  <outline>
    <contour>
      <point x="62" y="0" type="line"/>
      <point x="210" y="0" type="line"/>
      <point x="255" y="282" type="line"/>
      <point x="534" y="289" type="line"/>
      <point x="553" y="406" type="line"/>
      <point x="276" y="414" type="line"/>
      <point x="294" y="533" type="line" smooth="yes"/>
      <point x="301" y="580"/>
      <point x="322" y="603"/>
      <point x="370" y="603" type="curve" smooth="yes"/>
      <point x="631" y="603" type="line"/>
      <point x="650" y="727" type="line"/>
      <point x="581" y="734"/>
      <point x="436" y="740"/>
      <point x="348" y="740" type="curve" smooth="yes"/>
      <point x="264" y="740"/>
      <point x="174" y="708"/>
      <point x="152" y="572" type="curve" smooth="yes"/>
    </contour>
    <contour>
      <point x="434" y="810" type="move" name="top"/>
    </contour>
  </outline>
</glyph>
<glyph name="Y" format="1">
  <advance width="641"/>
  <unicode hex="0059"/>
  <note>
    GF Latin Plus glyph
  </note>
  <outline>
    <contour>
      <point x="133" y="740" type="line"/>
      <point x="274" y="216" type="line"/>
      <point x="239" y="0" type="line"/>
      <point x="388" y="0" type="line"/>
      <point x="422" y="216" type="line"/>
      <point x="743" y="740" type="line"/>
      <point x="575" y="740" type="line"/>
      <point x="372" y="377" type="line"/>
      <point x="294" y="740" type="line"/>
    </contour>
    <contour>
      <point x="446" y="810" type="move" name="top"/>
    </contour>
    <contour>
      <point x="294" y="-150" type="move" name="bottom"/>
    </contour>
  </outline>
</glyph>
<glyph name="bracketleft" format="1">
  <advance width="339"/>
  <unicode hex="005B"/>
  <note>
    GF Latin Plus glyph
  </note>
  <outline>
    <contour>
      <point x="66" y="-1" type="line" smooth="yes"/>
      <point x="63" y="-20"/>
      <point x="60" y="-40"/>
      <point x="60" y="-60" type="curve" smooth="yes"/>
      <point x="60" y="-135"/>
      <point x="90" y="-210"/>
      <point x="213" y="-210" type="curve" smooth="yes"/>
      <point x="292" y="-210" type="line"/>
      <point x="310" y="-91" type="line"/>
      <point x="275" y="-91" type="line" smooth="yes"/>
      <point x="234" y="-91"/>
      <point x="212" y="-70"/>
      <point x="212" y="-25" type="curve" smooth="yes"/>
      <point x="212" y="-15"/>
      <point x="214" y="-5"/>
      <point x="215" y="6" type="curve" smooth="yes"/>
      <point x="314" y="626" type="line" smooth="yes"/>
      <point x="325" y="698"/>
      <point x="359" y="723"/>
      <point x="404" y="723" type="curve" smooth="yes"/>
      <point x="440" y="723" type="line"/>
      <point x="458" y="842" type="line"/>
      <point x="379" y="842" type="line" smooth="yes"/>
      <point x="245" y="842"/>
      <point x="186" y="761"/>
      <point x="168" y="648" type="curve" smooth="yes"/>
    </contour>
  </outline>
</glyph>
<glyph name="a" format="1">
  <advance width="571"/>
  <unicode hex="0061"/>
  <note>
    GF Latin Plus glyph
  </note>
  <outline>
    <contour>
      <point x="229" y="280" type="curve" smooth="yes"/>
      <point x="244" y="373"/>
      <point x="278" y="424"/>
      <point x="360" y="424" type="curve" smooth="yes"/>
      <point x="395" y="424"/>
      <point x="424" y="414"/>
      <point x="434" y="408" type="curve"/>
      <point x="393" y="150" type="line"/>
      <point x="367" y="133"/>
      <point x="334" y="113"/>
      <point x="290" y="113" type="curve" smooth="yes"/>
      <point x="242" y="113"/>
      <point x="221" y="151"/>
      <point x="221" y="206" type="curve" smooth="yes"/>
      <point x="221" y="222"/>
      <point x="224" y="249"/>
    </contour>
    <contour>
      <point x="84" y="291" type="curve" smooth="yes"/>
      <point x="79" y="263"/>
      <point x="72" y="217"/>
      <point x="72" y="179" type="curve" smooth="yes"/>
      <point x="72" y="49"/>
      <point x="139" y="-6"/>
      <point x="218" y="-6" type="curve" smooth="yes"/>
      <point x="280" y="-6"/>
      <point x="350" y="29"/>
      <point x="379" y="54" type="curve"/>
      <point x="387" y="0" type="line"/>
      <point x="518" y="0" type="line"/>
      <point x="594" y="480" type="line"/>
      <point x="546" y="517"/>
      <point x="458" y="543"/>
      <point x="368" y="543" type="curve" smooth="yes"/>
      <point x="195" y="543"/>
      <point x="111" y="460"/>
    </contour>
    <contour>
      <point x="381" y="650" type="move" name="top"/>
    </contour>
    <contour>
      <point x="508" y="0" type="move" name="ogonek"/>
    </contour>
    <contour>
      <point x="255" y="-150" type="move" name="bottom"/>
    </contour>
  </outline>
</glyph>
<glyph name="g" format="1">
  <advance width="576"/>
  <unicode hex="0067"/>
  <note>
    GF Latin Plus glyph
  </note>
  <outline>
    <contour>
      <point x="231" y="286" type="curve" smooth="yes"/>
      <point x="248" y="386"/>
      <point x="293" y="425"/>
      <point x="360" y="424" type="curve" smooth="yes"/>
      <point x="371" y="424"/>
      <point x="426" y="420"/>
      <point x="437" y="417" type="curve"/>
      <point x="394" y="150" type="line"/>
      <point x="361" y="128"/>
      <point x="328" y="113"/>
      <point x="289" y="113" type="curve" smooth="yes"/>
      <point x="248" y="113"/>
      <point x="222" y="142"/>
      <point x="222" y="203" type="curve" smooth="yes"/>
      <point x="222" y="227"/>
      <point x="224" y="245"/>
    </contour>
    <contour>
      <point x="36" y="-224" type="line"/>
      <point x="169" y="-233" type="line" smooth="yes"/>
      <point x="370" y="-250"/>
      <point x="487" y="-203"/>
      <point x="510" y="-58" type="curve" smooth="yes"/>
      <point x="600" y="510" type="line"/>
      <point x="552" y="525"/>
      <point x="468" y="543"/>
      <point x="367" y="543" type="curve" smooth="yes"/>
      <point x="226" y="543"/>
      <point x="116" y="486"/>
      <point x="86" y="303" type="curve" smooth="yes"/>
      <point x="80" y="263"/>
      <point x="74" y="212"/>
      <point x="74" y="178" type="curve" smooth="yes"/>
      <point x="74" y="78"/>
      <point x="120" y="-6"/>
      <point x="214" y="-6" type="curve" smooth="yes"/>
      <point x="270" y="-6"/>
      <point x="340" y="21"/>
      <point x="380" y="54" type="curve"/>
      <point x="365" y="-35" type="line" smooth="yes"/>
      <point x="355" y="-103"/>
      <point x="298" y="-122"/>
      <point x="221" y="-122" type="curve" smooth="yes"/>
      <point x="52" y="-122" type="line"/>
    </contour>
    <contour>
      <point x="381" y="650" type="move" name="top"/>
    </contour>
    <contour>
      <point x="212" y="-350" type="move" name="bottom"/>
    </contour>
  </outline>
</glyph>
<glyph name="i" format="1">
  <advance width="254"/>
  <unicode hex="0069"/>
  <note>
    GF Latin Plus glyph
  </note>
  <outline>
    <contour>
      <point x="152" y="636" type="line" smooth="yes"/>
      <point x="149" y="624"/>
      <point x="157" y="616"/>
      <point x="169" y="616" type="curve" smooth="yes"/>
      <point x="283" y="616" type="line" smooth="yes"/>
      <point x="295" y="616"/>
      <point x="303" y="623"/>
      <point x="306" y="636" type="curve" smooth="yes"/>
      <point x="321" y="734" type="line" smooth="yes"/>
      <point x="322" y="746"/>
      <point x="318" y="755"/>
      <point x="305" y="755" type="curve" smooth="yes"/>
      <point x="191" y="755" type="line" smooth="yes"/>
      <point x="177" y="755"/>
      <point x="169" y="747"/>
      <point x="167" y="734" type="curve" smooth="yes"/>
    </contour>
    <component base="idotless" xOffset="-1"/>
    <contour>
      <point x="192" y="0" type="move" name="ogonek"/>
    </contour>
    <contour>
      <point x="113" y="-150" type="move" name="bottom"/>
    </contour>
  </outline>
</glyph>
<glyph name="u" format="1">
  <advance width="590"/>
  <unicode hex="0075"/>
  <note>
    GF Latin Plus glyph
  </note>
  <outline>
    <contour>
      <point x="81" y="185" type="line" smooth="yes"/>
      <point x="78" y="166"/>
      <point x="76" y="148"/>
      <point x="76" y="120" type="curve" smooth="yes"/>
      <point x="76" y="42"/>
      <point x="116" y="-6"/>
      <point x="209" y="-6" type="curve" smooth="yes"/>
      <point x="293" y="-6"/>
      <point x="340" y="16"/>
      <point x="397" y="55" type="curve"/>
      <point x="405" y="0" type="line"/>
      <point x="537" y="0" type="line"/>
      <point x="621" y="537" type="line"/>
      <point x="473" y="537" type="line"/>
      <point x="415" y="171" type="line"/>
      <point x="379" y="145"/>
      <point x="343" y="127"/>
      <point x="294" y="127" type="curve" smooth="yes"/>
      <point x="256" y="127"/>
      <point x="231" y="142"/>
      <point x="231" y="181" type="curve" smooth="yes"/>
      <point x="231" y="189"/>
      <point x="232" y="196"/>
      <point x="233" y="203" type="curve" smooth="yes"/>
      <point x="285" y="537" type="line"/>
      <point x="137" y="537" type="line"/>
    </contour>
    <contour>
      <point x="398" y="650" type="move" name="top"/>
    </contour>
    <contour>
      <point x="527" y="0" type="move" name="ogonek"/>
    </contour>
    <contour>
      <point x="272" y="-150" type="move" name="bottom"/>
    </contour>
  </outline>
</glyph>
<glyph name="y" format="1">
  <advance width="575"/>
  <unicode hex="0079"/>
  <note>
    GF Latin Plus glyph
  </note>
  <outline>
    <contour>
      <point x="91" y="537" type="line"/>
      <point x="137" y="144" type="line" smooth="yes"/>
      <point x="148" y="51"/>
      <point x="182" y="9"/>
      <point x="278" y="0" type="curve"/>
      <point x="239" y="-81"/>
      <point x="178" y="-115"/>
      <point x="96" y="-132" type="curve"/>
      <point x="96" y="-237" type="line"/>
      <point x="232" y="-226"/>
      <point x="329" y="-167"/>
      <point x="411" y="8" type="curve" smooth="yes"/>
      <point x="553" y="308" type="line" smooth="yes"/>
      <point x="595" y="396"/>
      <point x="613" y="472"/>
      <point x="613" y="545" type="curve"/>
      <point x="474" y="545" type="line"/>
      <point x="472" y="498"/>
      <point x="457" y="450"/>
      <point x="442" y="410" type="curve" smooth="yes"/>
      <point x="324" y="121" type="line"/>
      <point x="299" y="122"/>
      <point x="272" y="132"/>
      <point x="268" y="175" type="curve" smooth="yes"/>
      <point x="244" y="537" type="line"/>
    </contour>
    <contour>
      <point x="372" y="650" type="move" name="top"/>
    </contour>
    <contour>
      <point x="485" y="-150" type="move" name="bottom"/>
    </contour>
  </outline>
</glyph>
<glyph name="currency" format="1">
  <advance width="609"/>
  <unicode hex="00A4"/>
  <note>
    GF Latin Plus glyph
  </note>
  <outline>
    <contour>
      <point x="384" y="533" type="curve" smooth="yes"/>
      <point x="270" y="533"/>
      <point x="183" y="439"/>
      <point x="183" y="334" type="curve" smooth="yes"/>
      <point x="183" y="249"/>
      <point x="250" y="179"/>
      <point x="338" y="179" type="curve" smooth="yes"/>
      <point x="452" y="179"/>
      <point x="540" y="273"/>
      <point x="540" y="378" type="curve" smooth="yes"/>
      <point x="540" y="462"/>
      <point x="472" y="533"/>
    </contour>
    <contour>
      <point x="309" y="491" type="line"/>
      <point x="221" y="595" type="line"/>
      <point x="150" y="534" type="line"/>
      <point x="237" y="430" type="line"/>
    </contour>
    <contour>
      <point x="505" y="428" type="line"/>
      <point x="628" y="534" type="line"/>
      <point x="577" y="595" type="line"/>
      <point x="454" y="489" type="line"/>
    </contour>
    <contour>
      <point x="572" y="178" type="line"/>
      <point x="483" y="284" type="line"/>
      <point x="412" y="223" type="line"/>
      <point x="501" y="117" type="line"/>
    </contour>
    <contour>
      <point x="145" y="117" type="line"/>
      <point x="275" y="225" type="line"/>
      <point x="219" y="286" type="line"/>
      <point x="94" y="178" type="line"/>
    </contour>
    <contour>
      <point x="377" y="458" type="curve" smooth="yes"/>
      <point x="427" y="458"/>
      <point x="464" y="420"/>
      <point x="464" y="372" type="curve" smooth="yes"/>
      <point x="464" y="297"/>
      <point x="411" y="254"/>
      <point x="345" y="254" type="curve" smooth="yes"/>
      <point x="296" y="254"/>
      <point x="260" y="292"/>
      <point x="260" y="340" type="curve" smooth="yes"/>
      <point x="260" y="414"/>
      <point x="312" y="458"/>
    </contour>
  </outline>
</glyph>
<glyph name="AE" format="1">
  <advance width="980"/>
  <unicode hex="00C6"/>
  <note>
    GF Latin Plus glyph
  </note>
  <outline>
    <contour>
      <point x="361" y="280" type="line"/>
      <point x="557" y="563" type="line"/>
      <point x="512" y="280" type="line"/>
    </contour>
    <contour>
      <point x="12" y="0" type="line"/>
      <point x="159" y="0" type="line"/>
      <point x="275" y="154" type="line"/>
      <point x="492" y="154" type="line"/>
      <point x="487" y="108" type="line" smooth="yes"/>
      <point x="482" y="18"/>
      <point x="542" y="-6"/>
      <point x="646" y="-5" type="curve" smooth="yes"/>
      <point x="646" y="-5"/>
      <point x="859" y="1"/>
      <point x="935" y="11" type="curve"/>
      <point x="955" y="134" type="line"/>
      <point x="705" y="134" type="line" smooth="yes"/>
      <point x="669" y="134"/>
      <point x="622" y="136"/>
      <point x="633" y="200" type="curve" smooth="yes"/>
      <point x="649" y="302" type="line"/>
      <point x="936" y="310" type="line"/>
      <point x="954" y="427" type="line"/>
      <point x="670" y="435" type="line"/>
      <point x="684" y="522" type="line" smooth="yes"/>
      <point x="693" y="580"/>
      <point x="699" y="603"/>
      <point x="768" y="603" type="curve" smooth="yes"/>
      <point x="1029" y="603" type="line"/>
      <point x="1049" y="727" type="line"/>
      <point x="966" y="735"/>
      <point x="811" y="740"/>
      <point x="760" y="740" type="curve" smooth="yes"/>
      <point x="630" y="741"/>
      <point x="510" y="708"/>
      <point x="409" y="562" type="curve" smooth="yes"/>
    </contour>
    <contour>
      <point x="661" y="810" type="move" name="top"/>
    </contour>
  </outline>
</glyph>
<glyph name="kgreenlandic" format="1">
  <advance width="563"/>
  <unicode hex="0138"/>
  <note>
    GF Latin Plus glyph
  </note>
  <outline>
    <contour>
      <point x="53" y="0" type="line"/>
      <point x="201" y="0" type="line"/>
      <point x="238" y="231" type="line"/>
      <point x="253" y="231"/>
      <point x="280" y="234"/>
      <point x="299" y="239" type="curve"/>
      <point x="412" y="0" type="line"/>
      <point x="564" y="0" type="line"/>
      <point x="423" y="285" type="line"/>
      <point x="485" y="320"/>
      <point x="553" y="386"/>
      <point x="595" y="537" type="curve"/>
      <point x="447" y="537" type="line"/>
      <point x="415" y="417"/>
      <point x="349" y="357"/>
      <point x="255" y="342" type="curve"/>
      <point x="286" y="537" type="line"/>
      <point x="138" y="537" type="line"/>
    </contour>
  </outline>
</glyph>
<glyph name="Ohorn" format="1">
  <advance width="700"/>
  <unicode hex="01A0"/>
  <note>
    GF Latin Plus glyph
  </note>
  <outline>
    <contour>
      <point x="476" y="660" type="line"/>
      <point x="626" y="660" type="line" smooth="yes"/>
      <point x="713" y="660"/>
      <point x="782" y="723"/>
      <point x="803" y="850" type="curve"/>
      <point x="701" y="850" type="line"/>
      <point x="687" y="768"/>
      <point x="656" y="740"/>
      <point x="611" y="740" type="curve" smooth="yes"/>
      <point x="488" y="740" type="line"/>
    </contour>
    <component base="O"/>
    <contour>
      <point x="456" y="810" type="move" name="top"/>
    </contour>
    <contour>
      <point x="320" y="-150" type="move" name="bottom"/>
    </contour>
  </outline>
</glyph>
<glyph name="ogonek" format="1">
  <advance width="213"/>
  <unicode hex="02DB"/>
  <note>
    GF Latin Plus glyph
  </note>
  <outline>
    <contour>
      <point x="104" y="0" type="line"/>
      <point x="51" y="-26"/>
      <point x="20" y="-68"/>
      <point x="20" y="-117" type="curve" smooth="yes"/>
      <point x="20" y="-156"/>
      <point x="46" y="-192"/>
      <point x="113" y="-192" type="curve" smooth="yes"/>
      <point x="127" y="-192"/>
      <point x="139" y="-191"/>
      <point x="146" y="-188" type="curve"/>
      <point x="157" y="-119" type="line"/>
      <point x="148" y="-119" type="line" smooth="yes"/>
      <point x="117" y="-119"/>
      <point x="97" y="-103"/>
      <point x="97" y="-76" type="curve" smooth="yes"/>
      <point x="97" y="-57"/>
      <point x="113" y="-25"/>
      <point x="158" y="0" type="curve"/>
    </contour>
  </outline>
</glyph>
<glyph name="pi" format="1">
  <advance width="637"/>
  <unicode hex="03C0"/>
  <outline>
    <contour>
      <point x="79" y="403" type="line"/>
      <point x="159" y="403" type="line"/>
      <point x="95" y="0" type="line"/>
      <point x="243" y="0" type="line"/>
      <point x="307" y="403" type="line"/>
      <point x="412" y="403" type="line"/>
      <point x="372" y="153" type="line" smooth="yes"/>
      <point x="370" y="137"/>
      <point x="368" y="121"/>
      <point x="368" y="108" type="curve" smooth="yes"/>
      <point x="368" y="32"/>
      <point x="408" y="-6"/>
      <point x="485" y="-6" type="curve" smooth="yes"/>
      <point x="536" y="-6"/>
      <point x="569" y="7"/>
      <point x="592" y="21" type="curve"/>
      <point x="606" y="108" type="line"/>
      <point x="561" y="108" type="line" smooth="yes"/>
      <point x="533" y="108"/>
      <point x="520" y="115"/>
      <point x="520" y="142" type="curve" smooth="yes"/>
      <point x="520" y="146"/>
      <point x="520" y="153"/>
      <point x="521" y="160" type="curve" smooth="yes"/>
      <point x="560" y="403" type="line"/>
      <point x="645" y="403" type="line"/>
      <point x="666" y="537" type="line"/>
      <point x="100" y="537" type="line"/>
    </contour>
  </outline>
</glyph>
<glyph name="bullet" format="1">
  <advance width="314"/>
  <unicode hex="2022"/>
  <note>
    GF Latin Plus glyph
  </note>
  <outline>
    <contour>
      <point x="108" y="322" type="line" smooth="yes"/>
      <point x="105" y="302"/>
      <point x="115" y="290"/>
      <point x="135" y="290" type="curve" smooth="yes"/>
      <point x="246" y="290" type="line" smooth="yes"/>
      <point x="266" y="290"/>
      <point x="283" y="298"/>
      <point x="287" y="322" type="curve" smooth="yes"/>
      <point x="306" y="440" type="line" smooth="yes"/>
      <point x="310" y="462"/>
      <point x="302" y="475"/>
      <point x="277" y="475" type="curve" smooth="yes"/>
      <point x="165" y="475" type="line" smooth="yes"/>
      <point x="143" y="475"/>
      <point x="129" y="461"/>
      <point x="126" y="440" type="curve" smooth="yes"/>
    </contour>
  </outline>
</glyph>
<glyph name="won" format="1">
  <advance width="609"/>
  <unicode hex="20A9"/>
  <note>
    GF Latin Plus glyph
  </note>
  <outline>
    <contour>
      <point x="158" y="740" type="line"/>
      <point x="94" y="0" type="line"/>
      <point x="224" y="0" type="line"/>
      <point x="355" y="367" type="line"/>
      <point x="383" y="0" type="line"/>
      <point x="512" y="0" type="line"/>
      <point x="681" y="740" type="line"/>
      <point x="551" y="740" type="line"/>
      <point x="448" y="293" type="line"/>
      <point x="430" y="603" type="line"/>
      <point x="367" y="603" type="line"/>
      <point x="248" y="293" type="line"/>
      <point x="289" y="740" type="line"/>
    </contour>
    <contour>
      <point x="79" y="468" type="line"/>
      <point x="190" y="468" type="line"/>
      <point x="202" y="543" type="line"/>
      <point x="91" y="543" type="line"/>
    </contour>
    <contour>
      <point x="584" y="468" type="line"/>
      <point x="675" y="468" type="line"/>
      <point x="687" y="543" type="line"/>
      <point x="588" y="543" type="line"/>
    </contour>
    <contour>
      <point x="37" y="200" type="line"/>
      <point x="202" y="200" type="line"/>
      <point x="191" y="275" type="line"/>
      <point x="48" y="275" type="line"/>
    </contour>
    <contour>
      <point x="487" y="200" type="line"/>
      <point x="633" y="200" type="line"/>
      <point x="645" y="275" type="line"/>
      <point x="498" y="275" type="line"/>
    </contour>
  </outline>
</glyph>
<glyph name="dong" format="1">
  <advance width="609"/>
  <unicode hex="20AB"/>
  <note>
    GF Latin Plus glyph
  </note>
  <outline>
    <contour>
      <point x="58" y="-44" type="line"/>
      <point x="548" y="-44" type="line"/>
      <point x="567" y="75" type="line"/>
      <point x="77" y="75" type="line"/>
    </contour>
    <contour>
      <point x="372" y="655" type="line"/>
      <point x="696" y="655" type="line"/>
      <point x="706" y="714" type="line"/>
      <point x="382" y="714" type="line"/>
    </contour>
    <contour>
      <point x="371" y="474" type="curve" smooth="yes"/>
      <point x="405" y="474"/>
      <point x="433" y="463"/>
      <point x="458" y="453" type="curve"/>
      <point x="432" y="292" type="line"/>
      <point x="408" y="279"/>
      <point x="373" y="263"/>
      <point x="332" y="263" type="curve" smooth="yes"/>
      <point x="276" y="263"/>
      <point x="249" y="278"/>
      <point x="249" y="330" type="curve" smooth="yes"/>
      <point x="249" y="399"/>
      <point x="287" y="474"/>
    </contour>
    <contour>
      <point x="97" y="293" type="curve" smooth="yes"/>
      <point x="97" y="186"/>
      <point x="154" y="143"/>
      <point x="261" y="143" type="curve" smooth="yes"/>
      <point x="314" y="143"/>
      <point x="378" y="169"/>
      <point x="417" y="200" type="curve"/>
      <point x="433" y="149" type="line"/>
      <point x="557" y="149" type="line"/>
      <point x="658" y="783" type="line"/>
      <point x="510" y="783" type="line"/>
      <point x="475" y="560" type="line"/>
      <point x="439" y="573"/>
      <point x="390" y="585"/>
      <point x="341" y="585" type="curve" smooth="yes"/>
      <point x="160" y="585"/>
      <point x="97" y="423"/>
    </contour>
  </outline>
</glyph>
<glyph name="peso" format="1">
  <advance width="609"/>
  <unicode hex="20B1"/>
  <note>
    GF Latin Plus glyph
  </note>
  <outline>
    <contour>
      <point x="549" y="515" type="line"/>
      <point x="681" y="515" type="line"/>
      <point x="692" y="590" type="line"/>
      <point x="561" y="590" type="line"/>
    </contour>
    <contour>
      <point x="92" y="515" type="line"/>
      <point x="237" y="515" type="line"/>
      <point x="249" y="590" type="line"/>
      <point x="103" y="590" type="line"/>
    </contour>
    <contour>
      <point x="498" y="339" type="line"/>
      <point x="653" y="339" type="line"/>
      <point x="665" y="414" type="line"/>
      <point x="534" y="414" type="line"/>
    </contour>
    <contour>
      <point x="64" y="339" type="line"/>
      <point x="213" y="339" type="line"/>
      <point x="225" y="414" type="line"/>
      <point x="76" y="414" type="line"/>
    </contour>
    <contour>
      <point x="283" y="359" type="line"/>
      <point x="322" y="607" type="line"/>
      <point x="413" y="607" type="line" smooth="yes"/>
      <point x="451" y="607"/>
      <point x="477" y="586"/>
      <point x="477" y="531" type="curve" smooth="yes"/>
      <point x="477" y="426"/>
      <point x="434" y="359"/>
      <point x="370" y="359" type="curve" smooth="yes"/>
    </contour>
    <contour>
      <point x="92" y="0" type="line"/>
      <point x="226" y="0" type="line"/>
      <point x="264" y="242" type="line"/>
      <point x="290" y="236"/>
      <point x="334" y="226"/>
      <point x="373" y="226" type="curve" smooth="yes"/>
      <point x="501" y="226"/>
      <point x="614" y="324"/>
      <point x="614" y="568" type="curve" smooth="yes"/>
      <point x="614" y="718"/>
      <point x="526" y="740"/>
      <point x="449" y="740" type="curve" smooth="yes"/>
      <point x="209" y="740" type="line"/>
    </contour>
  </outline>
</glyph>
<glyph name="cedi" format="1">
  <advance width="609"/>
  <unicode hex="20B5"/>
  <note>
    GF Latin Plus glyph
  </note>
  <outline>
    <contour>
      <point x="388" y="-88" type="line"/>
      <point x="528" y="793" type="line"/>
      <point x="461" y="793" type="line"/>
      <point x="321" y="-88" type="line"/>
    </contour>
    <contour>
      <point x="97" y="238" type="curve" smooth="yes"/>
      <point x="97" y="38"/>
      <point x="192" y="-6"/>
      <point x="329" y="-6" type="curve" smooth="yes"/>
      <point x="439" y="-6"/>
      <point x="513" y="7"/>
      <point x="563" y="26" type="curve"/>
      <point x="580" y="133" type="line"/>
      <point x="532" y="124"/>
      <point x="477" y="120"/>
      <point x="384" y="120" type="curve" smooth="yes"/>
      <point x="281" y="120"/>
      <point x="232" y="146"/>
      <point x="232" y="249" type="curve" smooth="yes"/>
      <point x="232" y="436"/>
      <point x="315" y="611"/>
      <point x="479" y="611" type="curve" smooth="yes"/>
      <point x="531" y="611"/>
      <point x="604" y="605"/>
      <point x="654" y="599" type="curve"/>
      <point x="671" y="706" type="line"/>
      <point x="637" y="718"/>
      <point x="563" y="737"/>
      <point x="459" y="737" type="curve" smooth="yes"/>
      <point x="256" y="737"/>
      <point x="97" y="542"/>
    </contour>
  </outline>
</glyph>
<glyph name="summation" format="1">
  <advance width="543"/>
  <unicode hex="2211"/>
  <outline>
    <contour>
      <point x="-4" y="-200" type="line"/>
      <point x="511" y="-200" type="line"/>
      <point x="532" y="-63" type="line"/>
      <point x="212" y="-63" type="line"/>
      <point x="466" y="269" type="line"/>
      <point x="300" y="598" type="line"/>
      <point x="637" y="598" type="line"/>
      <point x="659" y="732" type="line"/>
      <point x="144" y="732" type="line"/>
      <point x="122" y="598" type="line"/>
      <point x="283" y="270" type="line"/>
      <point x="17" y="-63" type="line"/>
    </contour>
  </outline>
</glyph>
<glyph name="f_f" format="1">
  <advance width="782"/>
  <unicode hex="FB00"/>
  <note>
    GF Latin Plus glyph
  </note>
  <outline>
    <contour>
      <point x="82" y="418" type="line"/>
      <point x="157" y="418" type="line"/>
      <point x="91" y="0" type="line"/>
      <point x="239" y="0" type="line"/>
      <point x="305" y="418" type="line"/>
      <point x="632" y="418" type="line"/>
      <point x="651" y="537" type="line"/>
      <point x="324" y="537" type="line"/>
      <point x="329" y="575" type="line" smooth="yes"/>
      <point x="335" y="629"/>
      <point x="356" y="651"/>
      <point x="410" y="651" type="curve" smooth="yes"/>
      <point x="487" y="651" type="line"/>
      <point x="504" y="760" type="line"/>
      <point x="474" y="765"/>
      <point x="429" y="769"/>
      <point x="383" y="769" type="curve" smooth="yes"/>
      <point x="261" y="769"/>
      <point x="206" y="718"/>
      <point x="189" y="616" type="curve" smooth="yes"/>
      <point x="175" y="537" type="line"/>
      <point x="97" y="513" type="line"/>
    </contour>
    <component base="f" xOffset="390"/>
  </outline>
</glyph>
<glyph name="fl" format="1">
  <advance width="727"/>
  <unicode hex="FB02"/>
  <note>
    GF Latin Plus glyph
  </note>
  <outline>
    <contour>
      <point x="82" y="418" type="line"/>
      <point x="157" y="418" type="line"/>
      <point x="91" y="0" type="line"/>
      <point x="239" y="0" type="line"/>
      <point x="305" y="418" type="line"/>
      <point x="435" y="418" type="line"/>
      <point x="454" y="537" type="line"/>
      <point x="324" y="537" type="line"/>
      <point x="329" y="575" type="line" smooth="yes"/>
      <point x="335" y="629"/>
      <point x="357" y="651"/>
      <point x="421" y="651" type="curve" smooth="yes"/>
      <point x="692" y="651" type="line"/>
      <point x="709" y="740" type="line"/>
      <point x="593" y="762"/>
      <point x="509" y="769"/>
      <point x="408" y="769" type="curve" smooth="yes"/>
      <point x="269" y="769"/>
      <point x="207" y="726"/>
      <point x="189" y="616" type="curve" smooth="yes"/>
      <point x="175" y="537" type="line"/>
      <point x="97" y="513" type="line"/>
    </contour>
    <contour>
      <point x="473" y="186" type="line" smooth="yes"/>
      <point x="470" y="167"/>
      <point x="469" y="145"/>
      <point x="469" y="120" type="curve" smooth="yes"/>
      <point x="469" y="48"/>
      <point x="523" y="0"/>
      <point x="630" y="0" type="curve" smooth="yes"/>
      <point x="694" y="0" type="line"/>
      <point x="711" y="107" type="line"/>
      <point x="673" y="113" type="line" smooth="yes"/>
      <point x="640" y="117"/>
      <point x="621" y="127"/>
      <point x="621" y="164" type="curve" smooth="yes"/>
      <point x="621" y="184"/>
      <point x="627" y="222"/>
      <point x="629" y="237" type="curve" smooth="yes"/>
      <point x="709" y="740" type="line"/>
      <point x="561" y="740" type="line"/>
    </contour>
  </outline>
</glyph>
<glyph name="B.smcp" format="1">
  <advance width="535"/>
  <note>
    GF Latin Plus glyph
  </note>
  <outline>
    <contour>
      <point x="253" y="336" type="line"/>
      <point x="269" y="440" type="line"/>
      <point x="357" y="440" type="line" smooth="yes"/>
      <point x="389" y="440"/>
      <point x="405" y="430"/>
      <point x="405" y="406" type="curve" smooth="yes"/>
      <point x="405" y="398"/>
      <point x="404" y="390"/>
      <point x="401" y="379" type="curve" smooth="yes"/>
      <point x="396" y="353"/>
      <point x="380" y="336"/>
      <point x="346" y="336" type="curve" smooth="yes"/>
    </contour>
    <contour>
      <point x="219" y="120" type="line"/>
      <point x="237" y="235" type="line"/>
      <point x="331" y="235" type="line" smooth="yes"/>
      <point x="370" y="235"/>
      <point x="389" y="222"/>
      <point x="389" y="194" type="curve" smooth="yes"/>
      <point x="389" y="188"/>
      <point x="389" y="182"/>
      <point x="387" y="170" type="curve" smooth="yes"/>
      <point x="380" y="139"/>
      <point x="363" y="120"/>
      <point x="315" y="120" type="curve" smooth="yes"/>
    </contour>
    <contour>
      <point x="59" y="0" type="line"/>
      <point x="298" y="0" type="line" smooth="yes"/>
      <point x="425" y="0"/>
      <point x="501" y="33"/>
      <point x="517" y="133" type="curve" smooth="yes"/>
      <point x="522" y="158"/>
      <point x="521" y="170"/>
      <point x="521" y="180" type="curve" smooth="yes"/>
      <point x="521" y="246"/>
      <point x="491" y="276"/>
      <point x="433" y="291" type="curve"/>
      <point x="493" y="304"/>
      <point x="533" y="350"/>
      <point x="541" y="403" type="curve" smooth="yes"/>
      <point x="543" y="417"/>
      <point x="544" y="430"/>
      <point x="544" y="443" type="curve" smooth="yes"/>
      <point x="544" y="513"/>
      <point x="510" y="560"/>
      <point x="386" y="560" type="curve" smooth="yes"/>
      <point x="147" y="560" type="line"/>
    </contour>
    <contour>
      <point x="343" y="650" type="move" name="top"/>
    </contour>
  </outline>
</glyph>
<glyph name="Germandbls.smcp" format="1">
  <advance width="619"/>
  <note>
    GF Latin Plus glyph
  </note>
  <outline>
    <contour>
      <point x="437" y="284" type="line"/>
      <point x="595" y="448" type="line"/>
      <point x="612" y="551" type="line"/>
      <point x="446" y="444" type="line"/>
      <point x="323" y="311" type="line"/>
    </contour>
    <contour>
      <point x="309" y="218" type="line"/>
      <point x="414" y="218" type="line" smooth="yes"/>
      <point x="446" y="218"/>
      <point x="462" y="208"/>
      <point x="462" y="186" type="curve" smooth="yes"/>
      <point x="462" y="182"/>
      <point x="462" y="176"/>
      <point x="458" y="156" type="curve" smooth="yes"/>
      <point x="452" y="123"/>
      <point x="427" y="115"/>
      <point x="379" y="115" type="curve" smooth="yes"/>
      <point x="345" y="115"/>
      <point x="302" y="123"/>
      <point x="271" y="130" type="curve"/>
      <point x="253" y="11" type="line"/>
      <point x="288" y="2"/>
      <point x="342" y="-5"/>
      <point x="382" y="-5" type="curve" smooth="yes"/>
      <point x="499" y="-5"/>
      <point x="576" y="19"/>
      <point x="598" y="135" type="curve" smooth="yes"/>
      <point x="605" y="170"/>
      <point x="607" y="187"/>
      <point x="607" y="197" type="curve" smooth="yes"/>
      <point x="607" y="276"/>
      <point x="542" y="311"/>
      <point x="454" y="311" type="curve" smooth="yes"/>
      <point x="323" y="311" type="line"/>
    </contour>
    <contour>
      <point x="59" y="0" type="line"/>
      <point x="200" y="0" type="line"/>
      <point x="263" y="400" type="line" smooth="yes"/>
      <point x="268" y="428"/>
      <point x="285" y="440"/>
      <point x="319" y="440" type="curve" smooth="yes"/>
      <point x="526" y="440" type="line"/>
      <point x="612" y="551" type="line"/>
      <point x="544" y="555"/>
      <point x="442" y="560"/>
      <point x="333" y="560" type="curve" smooth="yes"/>
      <point x="231" y="560"/>
      <point x="141" y="517"/>
      <point x="122" y="398" type="curve" smooth="yes"/>
    </contour>
  </outline>
</glyph>
<glyph name="I.smcp" format="1">
  <advance width="257"/>
  <note>
    GF Latin Plus glyph
  </note>
  <outline>
    <contour>
      <point x="58" y="0" type="line"/>
      <point x="199" y="0" type="line"/>
      <point x="288" y="560" type="line"/>
      <point x="147" y="560" type="line"/>
    </contour>
    <contour>
      <point x="230" y="650" type="move" name="top"/>
    </contour>
    <contour>
      <point x="189" y="0" type="move" name="ogonek"/>
    </contour>
    <contour>
      <point x="102" y="-150" type="move" name="bottom"/>
    </contour>
  </outline>
</glyph>
<glyph name="Lslash.smcp" format="1">
  <advance width="452"/>
  <note>
    GF Latin Plus glyph
  </note>
  <outline>
    <contour>
      <point x="48" y="226" type="line"/>
      <point x="119" y="254" type="line"/>
      <point x="233" y="283" type="line"/>
      <point x="356" y="330" type="line"/>
      <point x="367" y="400" type="line"/>
      <point x="244" y="352" type="line"/>
      <point x="130" y="323" type="line"/>
      <point x="58" y="296" type="line"/>
    </contour>
    <component base="L.smcp"/>
  </outline>
</glyph>
<glyph name="M.salt.smcp" format="1">
  <advance width="740"/>
  <outline>
    <contour>
      <point x="43" y="0" type="line"/>
      <point x="179" y="0" type="line"/>
      <point x="267" y="418" type="line" smooth="yes"/>
      <point x="271" y="434"/>
      <point x="277" y="439"/>
      <point x="284" y="439" type="curve" smooth="yes"/>
      <point x="292" y="439"/>
      <point x="295" y="434"/>
      <point x="295" y="415" type="curve" smooth="yes"/>
      <point x="299" y="191" type="line" smooth="yes"/>
      <point x="299" y="138"/>
      <point x="335" y="103"/>
      <point x="390" y="103" type="curve" smooth="yes"/>
      <point x="439" y="103"/>
      <point x="488" y="125"/>
      <point x="510" y="191" type="curve" smooth="yes"/>
      <point x="587" y="422" type="line" smooth="yes"/>
      <point x="592" y="435"/>
      <point x="598" y="439"/>
      <point x="603" y="439" type="curve" smooth="yes"/>
      <point x="608" y="439"/>
      <point x="612" y="437"/>
      <point x="612" y="427" type="curve" smooth="yes"/>
      <point x="612" y="425"/>
      <point x="611" y="417"/>
      <point x="610" y="406" type="curve" smooth="yes"/>
      <point x="568" y="0" type="line"/>
      <point x="704" y="0" type="line"/>
      <point x="747" y="453" type="line" smooth="yes"/>
      <point x="748" y="460"/>
      <point x="749" y="467"/>
      <point x="749" y="474" type="curve" smooth="yes"/>
      <point x="748" y="550"/>
      <point x="697" y="571"/>
      <point x="639" y="571" type="curve" smooth="yes"/>
      <point x="576" y="571"/>
      <point x="516" y="550"/>
      <point x="493" y="455" type="curve" smooth="yes"/>
      <point x="432" y="264" type="line" smooth="yes"/>
      <point x="427" y="247"/>
      <point x="422" y="243"/>
      <point x="414" y="243" type="curve" smooth="yes"/>
      <point x="405" y="243"/>
      <point x="401" y="247"/>
      <point x="402" y="267" type="curve" smooth="yes"/>
      <point x="398" y="455" type="line" smooth="yes"/>
      <point x="401" y="528"/>
      <point x="364" y="572"/>
      <point x="283" y="572" type="curve" smooth="yes"/>
      <point x="219" y="572"/>
      <point x="160" y="545"/>
      <point x="140" y="451" type="curve" smooth="yes"/>
    </contour>
    <contour>
      <point x="466" y="650" type="move" name="top"/>
    </contour>
    <contour>
      <point x="345" y="-150" type="move" name="bottom"/>
    </contour>
  </outline>
</glyph>
<glyph name="O.smcp" format="1">
  <advance width="585"/>
  <note>
    GF Latin Plus glyph
  </note>
  <outline>
    <contour>
      <point x="221" y="183" type="curve" smooth="yes"/>
      <point x="221" y="205"/>
      <point x="224" y="243"/>
      <point x="230" y="280" type="curve" smooth="yes"/>
      <point x="251" y="412"/>
      <point x="281" y="445"/>
      <point x="363" y="445" type="curve" smooth="yes"/>
      <point x="424" y="445"/>
      <point x="452" y="430"/>
      <point x="452" y="372" type="curve" smooth="yes"/>
      <point x="452" y="350"/>
      <point x="448" y="311"/>
      <point x="442" y="272" type="curve" smooth="yes"/>
      <point x="425" y="163"/>
      <point x="397" y="115"/>
      <point x="310" y="115" type="curve" smooth="yes"/>
      <point x="246" y="115"/>
      <point x="221" y="130"/>
    </contour>
    <contour>
      <point x="79" y="177" type="curve" smooth="yes"/>
      <point x="79" y="30"/>
      <point x="168" y="-5"/>
      <point x="291" y="-5" type="curve" smooth="yes"/>
      <point x="469" y="-5"/>
      <point x="549" y="42"/>
      <point x="583" y="255" type="curve" smooth="yes"/>
      <point x="589" y="298"/>
      <point x="593" y="342"/>
      <point x="593" y="374" type="curve" smooth="yes"/>
      <point x="593" y="527"/>
      <point x="501" y="565"/>
      <point x="381" y="565" type="curve" smooth="yes"/>
      <point x="204" y="565"/>
      <point x="123" y="504"/>
      <point x="90" y="298" type="curve" smooth="yes"/>
      <point x="83" y="257"/>
      <point x="79" y="211"/>
    </contour>
    <contour>
      <point x="395" y="650" type="move" name="top"/>
    </contour>
    <contour>
      <point x="354" y="0" type="move" name="ogonek"/>
    </contour>
    <contour>
      <point x="271" y="-147" type="move" name="bottom"/>
    </contour>
  </outline>
</glyph>
<glyph name="P.smcp" format="1">
  <advance width="515"/>
  <note>
    GF Latin Plus glyph
  </note>
  <outline>
    <contour>
      <point x="244" y="281" type="line"/>
      <point x="269" y="440" type="line"/>
      <point x="362" y="440" type="line" smooth="yes"/>
      <point x="393" y="440"/>
      <point x="408" y="427"/>
      <point x="409" y="394" type="curve" smooth="yes"/>
      <point x="409" y="383"/>
      <point x="408" y="368"/>
      <point x="405" y="351" type="curve" smooth="yes"/>
      <point x="398" y="305"/>
      <point x="376" y="281"/>
      <point x="337" y="281" type="curve" smooth="yes"/>
    </contour>
    <contour>
      <point x="58" y="0" type="line"/>
      <point x="199" y="0" type="line"/>
      <point x="227" y="177" type="line"/>
      <point x="254" y="170"/>
      <point x="308" y="162"/>
      <point x="358" y="162" type="curve" smooth="yes"/>
      <point x="439" y="162"/>
      <point x="524" y="206"/>
      <point x="543" y="325" type="curve" smooth="yes"/>
      <point x="549" y="359"/>
      <point x="553" y="386"/>
      <point x="553" y="410" type="curve" smooth="yes"/>
      <point x="552" y="529"/>
      <point x="480" y="560"/>
      <point x="389" y="560" type="curve" smooth="yes"/>
      <point x="147" y="560" type="line"/>
    </contour>
    <contour>
      <point x="347" y="650" type="move" name="top"/>
    </contour>
  </outline>
</glyph>
<glyph name="Uhorn.smcp" format="1">
  <advance width="578"/>
  <outline>
    <contour>
      <point x="476" y="480" type="line"/>
      <point x="525" y="480" type="line" smooth="yes"/>
      <point x="613" y="480"/>
      <point x="682" y="543"/>
      <point x="702" y="670" type="curve"/>
      <point x="599" y="670" type="line"/>
      <point x="587" y="588"/>
      <point x="555" y="560"/>
      <point x="510" y="560" type="curve" smooth="yes"/>
      <point x="489" y="560" type="line"/>
    </contour>
    <component base="U.smcp"/>
    <contour>
      <point x="386" y="650" type="move" name="top"/>
    </contour>
    <contour>
      <point x="259" y="-150" type="move" name="bottom"/>
    </contour>
  </outline>
</glyph>
<glyph name="X.salt" format="1">
  <advance width="689"/>
  <outline>
    <contour>
      <point x="18" y="0" type="line"/>
      <point x="178" y="0" type="line"/>
      <point x="341" y="248" type="line" smooth="yes"/>
      <point x="374" y="297"/>
      <point x="393" y="360"/>
      <point x="393" y="415" type="curve" smooth="yes"/>
      <point x="393" y="445"/>
      <point x="387" y="473"/>
      <point x="377" y="497" type="curve" smooth="yes"/>
      <point x="288" y="740" type="line"/>
      <point x="135" y="740" type="line"/>
      <point x="227" y="463" type="line" smooth="yes"/>
      <point x="235" y="439"/>
      <point x="241" y="417"/>
      <point x="241" y="395" type="curve" smooth="yes"/>
      <point x="241" y="357"/>
      <point x="226" y="321"/>
      <point x="201" y="282" type="curve" smooth="yes"/>
    </contour>
    <contour>
      <point x="511" y="0" type="line"/>
      <point x="672" y="0" type="line"/>
      <point x="578" y="282" type="line" smooth="yes"/>
      <point x="571" y="304"/>
      <point x="567" y="324"/>
      <point x="567" y="343" type="curve" smooth="yes"/>
      <point x="567" y="383"/>
      <point x="583" y="422"/>
      <point x="610" y="463" type="curve" smooth="yes"/>
      <point x="789" y="740" type="line"/>
      <point x="636" y="740" type="line"/>
      <point x="470" y="497" type="line" smooth="yes"/>
      <point x="437" y="448"/>
      <point x="415" y="384"/>
      <point x="415" y="324" type="curve" smooth="yes"/>
      <point x="415" y="297"/>
      <point x="419" y="271"/>
      <point x="427" y="248" type="curve" smooth="yes"/>
    </contour>
    <contour>
      <point x="472" y="810" type="move" name="top"/>
    </contour>
    <contour>
      <point x="320" y="-150" type="move" name="bottom"/>
    </contour>
  </outline>
</glyph>
<glyph name="X.smcp" format="1">
  <advance width="560"/>
  <note>
    GF Latin Plus glyph
  </note>
  <outline>
    <contour>
      <point x="21" y="0" type="line"/>
      <point x="178" y="0" type="line"/>
      <point x="327" y="199" type="line"/>
      <point x="272" y="311" type="line"/>
    </contour>
    <contour>
      <point x="326" y="352" type="line"/>
      <point x="380" y="241" type="line"/>
      <point x="637" y="560" type="line"/>
      <point x="481" y="560" type="line"/>
    </contour>
    <contour>
      <point x="275" y="234" type="line"/>
      <point x="392" y="0" type="line"/>
      <point x="544" y="0" type="line"/>
      <point x="381" y="318" type="line"/>
      <point x="261" y="560" type="line"/>
      <point x="107" y="560" type="line"/>
    </contour>
    <contour>
      <point x="378" y="650" type="move" name="top"/>
    </contour>
    <contour>
      <point x="254" y="-150" type="move" name="bottom"/>
    </contour>
  </outline>
</glyph>
<glyph name="Z.smcp" format="1">
  <advance width="481"/>
  <note>
    GF Latin Plus glyph
  </note>
  <outline>
    <contour>
      <point x="37" y="0" type="line"/>
      <point x="443" y="0" type="line"/>
      <point x="463" y="120" type="line"/>
      <point x="219" y="120" type="line"/>
      <point x="506" y="448" type="line"/>
      <point x="524" y="560" type="line"/>
      <point x="126" y="560" type="line"/>
      <point x="107" y="440" type="line"/>
      <point x="344" y="440" type="line"/>
      <point x="55" y="112" type="line"/>
    </contour>
    <contour>
      <point x="343" y="650" type="move" name="top"/>
    </contour>
    <contour>
      <point x="221" y="-150" type="move" name="bottom"/>
    </contour>
  </outline>
</glyph>
<glyph name="asterisk.smcp" format="1">
  <advance width="364"/>
  <note>
    GF Latin Plus glyph
  </note>
  <outline>
    <contour>
      <point x="269" y="422" type="line"/>
      <point x="304" y="383" type="line"/>
      <point x="395" y="451" type="line"/>
      <point x="370" y="491" type="line"/>
    </contour>
    <contour>
      <point x="226" y="545" type="line"/>
      <point x="248" y="441" type="line"/>
      <point x="308" y="471" type="line"/>
      <point x="277" y="560" type="line"/>
    </contour>
    <contour>
      <point x="216" y="347" type="line"/>
      <point x="302" y="299" type="line"/>
      <point x="338" y="338" type="line"/>
      <point x="253" y="398" type="line"/>
    </contour>
    <contour>
      <point x="126" y="315" type="line"/>
      <point x="173" y="300" type="line"/>
      <point x="223" y="405" type="line"/>
      <point x="163" y="414" type="line"/>
    </contour>
    <contour>
      <point x="103" y="429" type="line"/>
      <point x="219" y="432" type="line"/>
      <point x="219" y="490" type="line"/>
      <point x="111" y="478" type="line"/>
    </contour>
  </outline>
</glyph>
<glyph name="brevebelowcomb" format="1">
  <note>
    GF Latin Plus glyph
  </note>
  <outline>
    <contour>
      <point x="-391" y="-76" type="line"/>
      <point x="-393" y="-90"/>
      <point x="-394" y="-103"/>
      <point x="-394" y="-115" type="curve" smooth="yes"/>
      <point x="-394" y="-192"/>
      <point x="-350" y="-227"/>
      <point x="-276" y="-227" type="curve" smooth="yes"/>
      <point x="-189" y="-227"/>
      <point x="-128" y="-181"/>
      <point x="-112" y="-76" type="curve"/>
      <point x="-182" y="-76" type="line"/>
      <point x="-192" y="-138"/>
      <point x="-225" y="-159"/>
      <point x="-266" y="-159" type="curve" smooth="yes"/>
      <point x="-297" y="-159"/>
      <point x="-324" y="-143"/>
      <point x="-324" y="-98" type="curve" smooth="yes"/>
      <point x="-324" y="-92"/>
      <point x="-323" y="-84"/>
      <point x="-322" y="-76" type="curve"/>
    </contour>
    <contour>
      <point x="-269" y="-150" type="move" name="_bottom"/>
    </contour>
  </outline>
</glyph>
<glyph name="brevecomb" format="1">
  <note>
    GF Latin Plus glyph
  </note>
  <outline>
    <component base="breve" xOffset="-541"/>
    <contour>
      <point x="-269" y="650" type="move" name="_top"/>
    </contour>
  </outline>
</glyph>
<glyph name="circumflexcomb_acutecomb" format="1">
  <outline>
    <contour>
      <point x="-439" y="631" type="line"/>
      <point x="-353" y="631" type="line"/>
      <point x="-276" y="674" type="line"/>
      <point x="-217" y="631" type="line"/>
      <point x="-131" y="631" type="line"/>
      <point x="-213" y="740" type="line"/>
      <point x="-314" y="740" type="line"/>
    </contour>
    <contour>
      <point x="-175" y="716" type="line"/>
      <point x="-95" y="716" type="line"/>
      <point x="3" y="841" type="line"/>
      <point x="-109" y="841" type="line"/>
    </contour>
    <contour>
      <point x="-279" y="650" type="move" name="_top"/>
    </contour>
  </outline>
</glyph>
<glyph name="eight.tnum" format="1">
  <advance width="609"/>
  <outline>
    <contour>
      <point x="289" y="509" type="curve" smooth="yes"/>
      <point x="296" y="556" type="line" smooth="yes"/>
      <point x="304" y="607"/>
      <point x="326" y="620"/>
      <point x="368" y="620" type="curve" smooth="yes"/>
      <point x="443" y="620" type="line" smooth="yes"/>
      <point x="472" y="620"/>
      <point x="492" y="612"/>
      <point x="492" y="577" type="curve" smooth="yes"/>
      <point x="492" y="571"/>
      <point x="491" y="564"/>
      <point x="489" y="556" type="curve" smooth="yes"/>
      <point x="483" y="509" type="line" smooth="yes"/>
      <point x="477" y="470"/>
      <point x="461" y="441"/>
      <point x="412" y="441" type="curve" smooth="yes"/>
      <point x="339" y="441" type="line" smooth="yes"/>
      <point x="303" y="441"/>
      <point x="287" y="455"/>
      <point x="287" y="486" type="curve" smooth="yes"/>
      <point x="287" y="492"/>
      <point x="287" y="500"/>
    </contour>
    <contour>
      <point x="226" y="184" type="curve" smooth="yes"/>
      <point x="237" y="250" type="line" smooth="yes"/>
      <point x="243" y="294"/>
      <point x="283" y="315"/>
      <point x="319" y="315" type="curve" smooth="yes"/>
      <point x="393" y="315" type="line" smooth="yes"/>
      <point x="435" y="315"/>
      <point x="454" y="298"/>
      <point x="454" y="265" type="curve" smooth="yes"/>
      <point x="454" y="260"/>
      <point x="453" y="255"/>
      <point x="453" y="250" type="curve" smooth="yes"/>
      <point x="442" y="184" type="line" smooth="yes"/>
      <point x="436" y="144"/>
      <point x="418" y="121"/>
      <point x="363" y="121" type="curve" smooth="yes"/>
      <point x="289" y="121" type="line" smooth="yes"/>
      <point x="248" y="121"/>
      <point x="225" y="134"/>
      <point x="225" y="167" type="curve" smooth="yes"/>
      <point x="225" y="173"/>
      <point x="225" y="178"/>
    </contour>
    <contour>
      <point x="73" y="157" type="line" smooth="yes"/>
      <point x="72" y="144"/>
      <point x="71" y="131"/>
      <point x="71" y="120" type="curve" smooth="yes"/>
      <point x="71" y="20"/>
      <point x="150" y="-4"/>
      <point x="243" y="-4" type="curve" smooth="yes"/>
      <point x="378" y="-4" type="line" smooth="yes"/>
      <point x="479" y="-4"/>
      <point x="565" y="27"/>
      <point x="586" y="157" type="curve" smooth="yes"/>
      <point x="603" y="261" type="line" smooth="yes"/>
      <point x="604" y="271"/>
      <point x="605" y="283"/>
      <point x="605" y="296" type="curve" smooth="yes"/>
      <point x="605" y="337"/>
      <point x="591" y="378"/>
      <point x="542" y="389" type="curve"/>
      <point x="597" y="399"/>
      <point x="621" y="473"/>
      <point x="627" y="507" type="curve" smooth="yes"/>
      <point x="640" y="591" type="line" smooth="yes"/>
      <point x="642" y="604"/>
      <point x="643" y="615"/>
      <point x="643" y="626" type="curve" smooth="yes"/>
      <point x="643" y="713"/>
      <point x="578" y="746"/>
      <point x="496" y="746" type="curve" smooth="yes"/>
      <point x="355" y="746" type="line" smooth="yes"/>
      <point x="262" y="746"/>
      <point x="175" y="704"/>
      <point x="157" y="591" type="curve" smooth="yes"/>
      <point x="144" y="507" type="line" smooth="yes"/>
      <point x="141" y="491"/>
      <point x="139" y="476"/>
      <point x="139" y="461" type="curve" smooth="yes"/>
      <point x="139" y="427"/>
      <point x="151" y="398"/>
      <point x="190" y="377" type="curve"/>
      <point x="138" y="365"/>
      <point x="99" y="315"/>
      <point x="90" y="258" type="curve" smooth="yes"/>
    </contour>
  </outline>
</glyph>
<glyph name="f_t" format="1">
  <advance width="798"/>
  <outline>
    <contour>
      <point x="82" y="418" type="line"/>
      <point x="157" y="418" type="line"/>
      <point x="91" y="0" type="line"/>
      <point x="239" y="0" type="line"/>
      <point x="305" y="418" type="line"/>
      <point x="627" y="418" type="line"/>
      <point x="645" y="537" type="line"/>
      <point x="324" y="537" type="line"/>
      <point x="329" y="575" type="line" smooth="yes"/>
      <point x="335" y="629"/>
      <point x="356" y="651"/>
      <point x="410" y="651" type="curve" smooth="yes"/>
      <point x="487" y="651" type="line"/>
      <point x="504" y="760" type="line"/>
      <point x="474" y="765"/>
      <point x="429" y="769"/>
      <point x="383" y="769" type="curve" smooth="yes"/>
      <point x="261" y="769"/>
      <point x="206" y="718"/>
      <point x="189" y="616" type="curve" smooth="yes"/>
      <point x="175" y="537" type="line"/>
      <point x="97" y="513" type="line"/>
    </contour>
    <component base="t" xOffset="390"/>
  </outline>
</glyph>
<glyph name="f_y" format="1">
  <advance width="965"/>
  <outline>
    <contour>
      <point x="242" y="418" type="line"/>
      <point x="427" y="418" type="line" smooth="yes"/>
      <point x="478" y="418"/>
      <point x="492" y="403"/>
      <point x="498" y="357" type="curve" smooth="yes"/>
      <point x="527" y="144" type="line" smooth="yes"/>
      <point x="537" y="51"/>
      <point x="572" y="9"/>
      <point x="668" y="0" type="curve"/>
      <point x="629" y="-81"/>
      <point x="568" y="-115"/>
      <point x="486" y="-132" type="curve"/>
      <point x="486" y="-237" type="line"/>
      <point x="622" y="-226"/>
      <point x="719" y="-167"/>
      <point x="801" y="8" type="curve" smooth="yes"/>
      <point x="943" y="308" type="line" smooth="yes"/>
      <point x="985" y="396"/>
      <point x="1003" y="472"/>
      <point x="1003" y="545" type="curve"/>
      <point x="864" y="545" type="line"/>
      <point x="862" y="498"/>
      <point x="847" y="450"/>
      <point x="832" y="410" type="curve" smooth="yes"/>
      <point x="714" y="121" type="line"/>
      <point x="689" y="122"/>
      <point x="662" y="132"/>
      <point x="658" y="175" type="curve" smooth="yes"/>
      <point x="639" y="386" type="line" smooth="yes"/>
      <point x="635" y="490"/>
      <point x="585" y="537"/>
      <point x="474" y="537" type="curve" smooth="yes"/>
      <point x="261" y="537" type="line"/>
    </contour>
    <component base="f"/>
  </outline>
</glyph>
<glyph name="four.smcp" format="1">
  <advance width="527"/>
  <note>
    GF Latin Plus glyph
  </note>
  <outline>
    <contour>
      <point x="56" y="169" type="line"/>
      <point x="72" y="110" type="line"/>
      <point x="324" y="110" type="line"/>
      <point x="307" y="0" type="line"/>
      <point x="448" y="0" type="line"/>
      <point x="465" y="110" type="line"/>
      <point x="521" y="130" type="line"/>
      <point x="536" y="222" type="line"/>
      <point x="483" y="222" type="line"/>
      <point x="508" y="384" type="line"/>
      <point x="394" y="384" type="line"/>
      <point x="357" y="315" type="line"/>
      <point x="342" y="222" type="line"/>
      <point x="233" y="222" type="line"/>
      <point x="442" y="560" type="line"/>
      <point x="298" y="560" type="line"/>
    </contour>
  </outline>
</glyph>
<glyph name="hungarumlautcomb" format="1">
  <note>
    GF Latin Plus glyph
  </note>
  <outline>
    <component base="hungarumlaut" xOffset="-519"/>
    <contour>
      <point x="-269" y="650" type="move" name="_top"/>
    </contour>
  </outline>
</glyph>
<glyph name="kip.smcp" format="1">
  <advance width="511"/>
  <note>
    GF Latin Plus glyph
  </note>
  <outline>
    <contour>
      <point x="56" y="214" type="line"/>
      <point x="506" y="214" type="line"/>
      <point x="526" y="340" type="line"/>
      <point x="75" y="340" type="line"/>
    </contour>
    <contour>
      <point x="61" y="0" type="line"/>
      <point x="202" y="0" type="line"/>
      <point x="236" y="217" type="line"/>
      <point x="287" y="217" type="line"/>
      <point x="343" y="0" type="line"/>
      <point x="491" y="0" type="line"/>
      <point x="407" y="279" type="line"/>
      <point x="574" y="560" type="line"/>
      <point x="426" y="560" type="line"/>
      <point x="306" y="337" type="line"/>
      <point x="255" y="337" type="line"/>
      <point x="290" y="560" type="line"/>
      <point x="149" y="560" type="line"/>
    </contour>
  </outline>
</glyph>
<glyph name="micro" format="1">
  <advance width="595"/>
  <note>
    GF Latin Plus glyph
  </note>
  <outline>
    <contour>
      <point x="12" y="-269" type="line"/>
      <point x="161" y="-269" type="line"/>
      <point x="242" y="245" type="line"/>
      <point x="94" y="245" type="line"/>
    </contour>
    <contour>
      <point x="140" y="537" type="line"/>
      <point x="85" y="188" type="line" smooth="yes"/>
      <point x="83" y="176"/>
      <point x="82" y="165"/>
      <point x="82" y="153" type="curve" smooth="yes"/>
      <point x="82" y="50"/>
      <point x="176" y="-6"/>
      <point x="262" y="-6" type="curve" smooth="yes"/>
      <point x="322" y="-6"/>
      <point x="368" y="17"/>
      <point x="407" y="55" type="curve"/>
      <point x="417" y="0" type="line"/>
      <point x="540" y="0" type="line"/>
      <point x="624" y="537" type="line"/>
      <point x="476" y="537" type="line"/>
      <point x="417" y="164" type="line"/>
      <point x="383" y="140"/>
      <point x="345" y="125"/>
      <point x="301" y="125" type="curve" smooth="yes"/>
      <point x="261" y="125"/>
      <point x="234" y="137"/>
      <point x="234" y="180" type="curve" smooth="yes"/>
      <point x="234" y="187"/>
      <point x="235" y="194"/>
      <point x="235" y="201" type="curve" smooth="yes"/>
      <point x="288" y="537" type="line"/>
    </contour>
  </outline>
</glyph>
<glyph name="p.salt" format="1">
  <advance width="575"/>
  <outline>
    <contour>
      <point x="223" y="135" type="curve"/>
      <point x="269" y="425" type="line"/>
      <point x="363" y="425" type="line" smooth="yes"/>
      <point x="413" y="425"/>
      <point x="435" y="397"/>
      <point x="435" y="327" type="curve" smooth="yes"/>
      <point x="435" y="213"/>
      <point x="390" y="121"/>
      <point x="312" y="121" type="curve" smooth="yes"/>
      <point x="280" y="121"/>
      <point x="251" y="125"/>
    </contour>
    <contour>
      <point x="15" y="-246" type="line"/>
      <point x="163" y="-246" type="line"/>
      <point x="205" y="16" type="line"/>
      <point x="238" y="1"/>
      <point x="289" y="-5"/>
      <point x="324" y="-5" type="curve" smooth="yes"/>
      <point x="525" y="-5"/>
      <point x="581" y="208"/>
      <point x="581" y="351" type="curve" smooth="yes"/>
      <point x="581" y="487"/>
      <point x="531" y="547"/>
      <point x="396" y="547" type="curve" smooth="yes"/>
      <point x="294" y="547"/>
      <point x="211" y="530"/>
      <point x="132" y="496" type="curve"/>
    </contour>
    <contour>
      <point x="395" y="650" type="move" name="top"/>
    </contour>
  </outline>
</glyph>
<glyph name="peseta.smcp" format="1">
  <advance width="511"/>
  <note>
    GF Latin Plus glyph
  </note>
  <outline>
    <contour>
      <point x="237" y="228" type="line"/>
      <point x="271" y="440" type="line"/>
      <point x="327" y="440" type="line" smooth="yes"/>
      <point x="359" y="440"/>
      <point x="379" y="419"/>
      <point x="380" y="379" type="curve" smooth="yes"/>
      <point x="380" y="281"/>
      <point x="352" y="228"/>
      <point x="299" y="228" type="curve" smooth="yes"/>
    </contour>
    <contour>
      <point x="61" y="0" type="line"/>
      <point x="202" y="0" type="line"/>
      <point x="221" y="122" type="line"/>
      <point x="242" y="115"/>
      <point x="271" y="108"/>
      <point x="319" y="108" type="curve" smooth="yes"/>
      <point x="394" y="108"/>
      <point x="518" y="172"/>
      <point x="516" y="387" type="curve" smooth="yes"/>
      <point x="514" y="528"/>
      <point x="439" y="560"/>
      <point x="374" y="560" type="curve" smooth="yes"/>
      <point x="150" y="560" type="line"/>
    </contour>
    <contour>
      <point x="204" y="299" type="line"/>
      <point x="546" y="299" type="line"/>
      <point x="556" y="364" type="line"/>
      <point x="214" y="364" type="line"/>
    </contour>
    <contour>
      <point x="68" y="299" type="line"/>
      <point x="196" y="299" type="line"/>
      <point x="206" y="364" type="line"/>
      <point x="78" y="364" type="line"/>
    </contour>
  </outline>
</glyph>
<glyph name="rupeeIndian.smcp" format="1">
  <advance width="511"/>
  <note>
    GF Latin Plus glyph
  </note>
  <outline>
    <contour>
      <point x="270" y="495" type="line"/>
      <point x="554" y="495" type="line"/>
      <point x="564" y="560" type="line"/>
      <point x="281" y="560" type="line"/>
    </contour>
    <contour>
      <point x="104" y="327" type="line"/>
      <point x="527" y="327" type="line"/>
      <point x="537" y="393" type="line"/>
      <point x="115" y="393" type="line"/>
    </contour>
    <contour>
      <point x="124" y="448" type="line"/>
      <point x="255" y="448" type="line" smooth="yes"/>
      <point x="284" y="448"/>
      <point x="301" y="431"/>
      <point x="301" y="388" type="curve" smooth="yes"/>
      <point x="302" y="306"/>
      <point x="261" y="270"/>
      <point x="225" y="270" type="curve" smooth="yes"/>
      <point x="95" y="270" type="line"/>
      <point x="78" y="165" type="line"/>
      <point x="113" y="165"/>
      <point x="159" y="165"/>
      <point x="184" y="165" type="curve"/>
      <point x="250" y="0" type="line"/>
      <point x="403" y="0" type="line"/>
      <point x="328" y="180" type="line"/>
      <point x="389" y="207"/>
      <point x="445" y="293"/>
      <point x="444" y="407" type="curve" smooth="yes"/>
      <point x="443" y="527"/>
      <point x="367" y="560"/>
      <point x="296" y="560" type="curve" smooth="yes"/>
      <point x="141" y="560" type="line"/>
    </contour>
  </outline>
</glyph>
<glyph name="sterling.smcp" format="1">
  <advance width="492"/>
  <note>
    GF Latin Plus glyph
  </note>
  <outline>
    <contour>
      <point x="49" y="0" type="line"/>
      <point x="439" y="0" type="line"/>
      <point x="458" y="119" type="line"/>
      <point x="266" y="119" type="line"/>
      <point x="283" y="230" type="line"/>
      <point x="426" y="235" type="line"/>
      <point x="437" y="308" type="line"/>
      <point x="297" y="314" type="line"/>
      <point x="307" y="375" type="line" smooth="yes"/>
      <point x="314" y="426"/>
      <point x="336" y="434"/>
      <point x="383" y="434" type="curve" smooth="yes"/>
      <point x="505" y="434" type="line"/>
      <point x="521" y="541" type="line"/>
      <point x="488" y="547"/>
      <point x="452" y="553"/>
      <point x="407" y="553" type="curve" smooth="yes"/>
      <point x="274" y="553"/>
      <point x="192" y="541"/>
      <point x="167" y="380" type="curve" smooth="yes"/>
      <point x="156" y="314" type="line"/>
      <point x="93" y="305" type="line"/>
      <point x="83" y="239" type="line"/>
      <point x="142" y="230" type="line"/>
      <point x="125" y="119" type="line"/>
      <point x="66" y="102" type="line"/>
    </contour>
  </outline>
</glyph>
<glyph name="three.oldstyle" format="1">
  <advance width="566"/>
  <outline>
    <contour>
      <point x="115" y="402" type="line"/>
      <point x="294" y="402" type="line" smooth="yes"/>
      <point x="367" y="402"/>
      <point x="398" y="383"/>
      <point x="398" y="342" type="curve" smooth="yes"/>
      <point x="398" y="336"/>
      <point x="397" y="331"/>
      <point x="397" y="325" type="curve" smooth="yes"/>
      <point x="392" y="300" type="line" smooth="yes"/>
      <point x="385" y="255"/>
      <point x="348" y="239"/>
      <point x="287" y="235" type="curve" smooth="yes"/>
      <point x="138" y="226" type="line"/>
      <point x="120" y="112" type="line"/>
      <point x="274" y="105" type="line" smooth="yes"/>
      <point x="322" y="102"/>
      <point x="360" y="86"/>
      <point x="360" y="44" type="curve" smooth="yes"/>
      <point x="360" y="40"/>
      <point x="360" y="36"/>
      <point x="359" y="31" type="curve" smooth="yes"/>
      <point x="354" y="0" type="line" smooth="yes"/>
      <point x="345" y="-54"/>
      <point x="306" y="-69"/>
      <point x="225" y="-69" type="curve" smooth="yes"/>
      <point x="25" y="-69" type="line"/>
      <point x="6" y="-188" type="line"/>
      <point x="75" y="-200"/>
      <point x="162" y="-209"/>
      <point x="259" y="-209" type="curve" smooth="yes"/>
      <point x="390" y="-209"/>
      <point x="479" y="-145"/>
      <point x="498" y="-28" type="curve" smooth="yes"/>
      <point x="505" y="11" type="line" smooth="yes"/>
      <point x="506" y="24"/>
      <point x="507" y="36"/>
      <point x="507" y="49" type="curve" smooth="yes"/>
      <point x="507" y="115"/>
      <point x="470" y="156"/>
      <point x="426" y="169" type="curve"/>
      <point x="481" y="186"/>
      <point x="528" y="228"/>
      <point x="540" y="305" type="curve" smooth="yes"/>
      <point x="549" y="360" type="line" smooth="yes"/>
      <point x="551" y="374"/>
      <point x="552" y="387"/>
      <point x="552" y="399" type="curve" smooth="yes"/>
      <point x="552" y="505"/>
      <point x="476" y="543"/>
      <point x="365" y="543" type="curve" smooth="yes"/>
      <point x="280" y="543"/>
      <point x="201" y="531"/>
      <point x="134" y="521" type="curve"/>
    </contour>
  </outline>
</glyph>
<glyph name="three.smcp" format="1">
  <advance width="485"/>
  <note>
    GF Latin Plus glyph
  </note>
  <outline>
    <contour>
      <point x="120" y="445" type="line"/>
      <point x="284" y="445" type="line" smooth="yes"/>
      <point x="327" y="445"/>
      <point x="358" y="437"/>
      <point x="358" y="404" type="curve" smooth="yes"/>
      <point x="358" y="401"/>
      <point x="358" y="395"/>
      <point x="354" y="375" type="curve" smooth="yes"/>
      <point x="350" y="353"/>
      <point x="332" y="340"/>
      <point x="281" y="337" type="curve" smooth="yes"/>
      <point x="142" y="329" type="line"/>
      <point x="127" y="234" type="line"/>
      <point x="253" y="229" type="line" smooth="yes"/>
      <point x="300" y="226"/>
      <point x="331" y="210"/>
      <point x="331" y="183" type="curve" smooth="yes"/>
      <point x="331" y="181"/>
      <point x="331" y="176"/>
      <point x="328" y="158" type="curve" smooth="yes"/>
      <point x="322" y="124"/>
      <point x="299" y="114"/>
      <point x="236" y="114" type="curve" smooth="yes"/>
      <point x="58" y="114" type="line"/>
      <point x="42" y="14" type="line"/>
      <point x="107" y="2"/>
      <point x="186" y="-5"/>
      <point x="272" y="-5" type="curve" smooth="yes"/>
      <point x="378" y="-5"/>
      <point x="451" y="45"/>
      <point x="465" y="135" type="curve" smooth="yes"/>
      <point x="470" y="168"/>
      <point x="471" y="180"/>
      <point x="471" y="191" type="curve" smooth="yes"/>
      <point x="471" y="238"/>
      <point x="448" y="270"/>
      <point x="409" y="282" type="curve"/>
      <point x="459" y="297"/>
      <point x="487" y="330"/>
      <point x="496" y="385" type="curve" smooth="yes"/>
      <point x="505" y="434"/>
      <point x="505" y="445"/>
      <point x="505" y="454" type="curve" smooth="yes"/>
      <point x="504" y="540"/>
      <point x="446" y="565"/>
      <point x="348" y="565" type="curve" smooth="yes"/>
      <point x="273" y="565"/>
      <point x="200" y="555"/>
      <point x="136" y="545" type="curve"/>
    </contour>
  </outline>
</glyph>
<glyph name="two.smcp" format="1">
  <advance width="491"/>
  <note>
    GF Latin Plus glyph
  </note>
  <outline>
    <contour>
      <point x="126" y="439" type="line"/>
      <point x="293" y="439" type="line" smooth="yes"/>
      <point x="336" y="439"/>
      <point x="350" y="425"/>
      <point x="350" y="398" type="curve" smooth="yes"/>
      <point x="351" y="367"/>
      <point x="328" y="327"/>
      <point x="280" y="287" type="curve" smooth="yes"/>
      <point x="63" y="106" type="line"/>
      <point x="46" y="0" type="line"/>
      <point x="454" y="0" type="line"/>
      <point x="473" y="119" type="line"/>
      <point x="259" y="119" type="line"/>
      <point x="388" y="228" type="line" smooth="yes"/>
      <point x="465" y="293"/>
      <point x="492" y="362"/>
      <point x="491" y="437" type="curve" smooth="yes"/>
      <point x="490" y="510"/>
      <point x="447" y="565"/>
      <point x="328" y="565" type="curve" smooth="yes"/>
      <point x="252" y="565"/>
      <point x="192" y="553"/>
      <point x="143" y="544" type="curve"/>
    </contour>
  </outline>
</glyph>
<glyph name="two.tnum" format="1">
  <advance width="609"/>
  <outline>
    <contour>
      <point x="173" y="606" type="line"/>
      <point x="373" y="606" type="line" smooth="yes"/>
      <point x="445" y="606"/>
      <point x="471" y="582"/>
      <point x="471" y="542" type="curve" smooth="yes"/>
      <point x="471" y="504"/>
      <point x="434" y="435"/>
      <point x="354" y="364" type="curve" smooth="yes"/>
      <point x="78" y="119" type="line"/>
      <point x="60" y="0" type="line"/>
      <point x="558" y="0" type="line"/>
      <point x="579" y="134" type="line"/>
      <point x="278" y="134" type="line"/>
      <point x="455" y="289" type="line" smooth="yes"/>
      <point x="582" y="403"/>
      <point x="625" y="500"/>
      <point x="625" y="597" type="curve" smooth="yes"/>
      <point x="625" y="691"/>
      <point x="573" y="746"/>
      <point x="426" y="746" type="curve" smooth="yes"/>
      <point x="333" y="746"/>
      <point x="255" y="733"/>
      <point x="192" y="722" type="curve"/>
    </contour>
  </outline>
</glyph>
<glyph name="uhorn.salt" format="1">
  <advance width="588"/>
  <outline>
    <contour>
      <point x="470" y="456" type="line"/>
      <point x="524" y="456" type="line" smooth="yes"/>
      <point x="611" y="456"/>
      <point x="681" y="520"/>
      <point x="701" y="647" type="curve"/>
      <point x="598" y="647" type="line"/>
      <point x="586" y="564"/>
      <point x="554" y="537"/>
      <point x="509" y="537" type="curve" smooth="yes"/>
      <point x="482" y="537" type="line"/>
    </contour>
    <component base="u.salt"/>
    <contour>
      <point x="389" y="650" type="move" name="top"/>
    </contour>
    <contour>
      <point x="264" y="-150" type="move" name="bottom"/>
    </contour>
  </outline>
</glyph>
<glyph name="yen.smcp" format="1">
  <advance width="485"/>
  <note>
    GF Latin Plus glyph
  </note>
  <outline>
    <contour>
      <point x="67" y="79" type="line"/>
      <point x="429" y="79" type="line"/>
      <point x="440" y="144" type="line"/>
      <point x="77" y="144" type="line"/>
    </contour>
    <contour>
      <point x="84" y="187" type="line"/>
      <point x="446" y="187" type="line"/>
      <point x="457" y="253" type="line"/>
      <point x="94" y="253" type="line"/>
    </contour>
    <component base="Y.smcp" xOffset="-32"/>
  </outline>
</glyph>
<glyph name="zero.zero" format="1">
  <advance width="647"/>
  <note>
    GF Latin Plus glyph
  </note>
  <outline>
    <contour>
      <point x="548" y="658" type="line"/>
      <point x="134" y="85" type="line"/>
      <point x="217" y="85" type="line"/>
      <point x="631" y="658" type="line"/>
    </contour>
    <component base="zero"/>
  </outline>
</glyph>
<glyph name="zero.zero.smcp" format="1">
  <advance width="539"/>
  <note>
    GF Latin Plus glyph
  </note>
  <outline>
    <contour>
      <point x="438" y="488" type="line"/>
      <point x="112" y="73" type="line"/>
      <point x="190" y="73" type="line"/>
      <point x="515" y="488" type="line"/>
    </contour>
    <component base="zero.smcp"/>
  </outline>
</glyph>
